<svg preserveAspectRatio="xMidYMid meet" id="comp-kd5nx8vi1svgcontent" data-bbox="8.421 36 181.578 128" viewBox="8.421 36 181.578 128" xmlns="http://www.w3.org/2000/svg" data-type="color" role="img" aria-labelledby="comp-kd5nx8vi1-svgtitle"><title id="comp-kd5nx8vi1-svgtitle"/><g>
<path d="M189.1 90.275c-4.898-35.357-40.178-60.33-75.278-52.99-25.2 5.281-42.3 20.408-49.32 45.113-7.11 25.063-.36 46.993 18.63 64.985 4.05 3.849 9 6.803 13.95 10.352H11.557c-1.287 0-3.136.858-3.136 3.038 0 2.16 1.858 2.901 3.115 2.901.952 0 114.435.326 114.435.326 27.99.031 53.37-18.855 61.38-45.619.63-2.059 1.08-4.207 1.62-6.355.72-3.312 1.028-10.115 1.028-10.115V98.51c.001 0-.217-5.46-.899-8.235zm-62.948 67.401c-31.77 0-58.05-26.227-58.05-57.913.09-31.776 25.74-57.197 57.69-57.197s58.32 25.958 58.41 57.555c.09 31.329-26.37 57.555-58.05 57.555z" fill="#333" data-color="1"/>
<path d="M125.792 85.531c-9.81 0-17.19-7.25-17.28-16.917-.09-9.846 7.29-17.365 17.1-17.365s17.37 7.519 17.37 17.186c0 9.487-7.56 17.096-17.19 17.096zm10.89-17.365c.09-5.729-5.13-11.01-10.89-11.01-5.67 0-10.71 5.013-10.8 10.741-.09 5.818 4.68 10.741 10.53 10.92 5.85.179 11.07-4.833 11.16-10.651z" fill="#333" data-color="1"/>
<path d="M174.482 100.3c0 9.578-7.47 16.828-17.28 16.738-9.63-.09-17.1-7.519-17.1-17.186s7.65-17.365 17.28-17.365c9.81.09 17.1 7.698 17.1 17.813zm-17.1 10.383c6.12-.09 10.89-5.102 10.8-11.457-.09-5.639-5.13-10.383-10.89-10.294-5.85.09-11.07 5.46-10.98 11.099.18 5.729 5.31 10.652 11.07 10.652z" fill="#333" data-color="1"/>
<path d="M108.602 131.539c.09-9.757 7.56-17.096 17.46-17.007 9.63.09 17.1 7.608 17.01 17.186-.09 9.399-7.74 17.097-17.28 17.097-9.81.089-17.28-7.43-17.19-17.276zm6.39-.358c-.09 5.818 5.04 11.01 10.89 11.01 5.58 0 10.8-5.192 10.89-10.741.09-5.818-4.77-10.741-10.62-10.831-6.12-.179-11.16 4.565-11.16 10.562z" fill="#333" data-color="1"/>
<path d="M77.102 99.763c0-9.578 7.47-17.096 17.1-17.186s17.37 7.608 17.37 17.276c0 9.488-7.65 17.096-17.19 17.186-9.81.089-17.37-7.43-17.28-17.276zm27.99 0c0-5.818-4.95-10.741-10.71-10.831-5.67 0-11.07 5.371-11.07 11.01.09 5.639 5.22 10.652 10.89 10.741 6.03 0 10.89-4.923 10.89-10.92z" fill="#333" data-color="1"/>
<path d="M125.882 88.932c6.12.09 10.8 4.834 10.71 11.01-.09 5.997-5.04 10.92-11.07 10.831-6.12-.09-10.89-4.923-10.8-11.099.27-6.087 5.04-10.742 11.16-10.742zm4.41 11.01c0-2.506-1.98-4.565-4.41-4.655-2.43-.09-4.5 1.969-4.5 4.476s1.98 4.655 4.41 4.655c2.34.089 4.41-2.059 4.5-4.476z" fill="#333" data-color="1"/>
<path d="M129.176 99.942c0 1.812-1.619 3.422-3.373 3.422-1.822 0-3.306-1.61-3.306-3.489 0-1.878 1.552-3.422 3.373-3.355 1.822 0 3.306 1.543 3.306 3.422z" fill="#333" data-color="1"/></g></svg>